<svg height="512pt" viewBox="-98 0 512 512" width="512pt" xmlns="http://www.w3.org/2000/svg"><path d="m307.5 37.5v437c0 16.570312-13.429688 30-30 30h-240c-16.570312 0-30-13.429688-30-30v-437c0-16.570312 13.429688-30 30-30h240c16.570312 0 30 13.429688 30 30zm0 0" fill="#6c7a88"/><path d="m37.5 504.5h240c16.570312 0 30-13.433594 30-30v-437c0-11.101562-6.035156-20.789062-15-25.976562-8.964844 5.1875-15 14.875-15 25.976562v437h-240c-11.101562 0-20.789062 6.035156-25.976562 15 5.1875 8.964844 14.875 15 25.976562 15zm0 0" fill="#596775"/><path d="m108.96875 166.378906c-2.1875-5.863281-7.789062-9.753906-14.050781-9.753906s-11.863281 3.890625-14.054688 9.753906l-42 112.5c-2.894531 7.761719 1.046875 16.402344 8.808594 19.300782 7.757813 2.894531 16.402344-1.046876 19.300781-8.808594l4.757813-12.746094h46.375l4.757812 12.746094c2.253907 6.03125 7.976563 9.757812 14.058594 9.757812 1.742187 0 3.515625-.304687 5.242187-.949218 7.761719-2.898438 11.703126-11.539063 8.808594-19.300782zm-26.039062 80.246094 11.988281-32.113281 11.988281 32.113281zm0 0" fill="#fff9eb"/><path d="m262.5 190.375c-6.089844 0-11.324219 3.636719-13.671875 8.851562-9.125-5.609374-19.851563-8.851562-31.328125-8.851562-33.082031 0-60 26.914062-60 60s26.917969 60 60 60c10.921875 0 21.15625-2.945312 29.988281-8.0625-.277343 12.761719-10.753906 23.0625-23.605469 23.0625h-6.382812c-8.285156 0-15 6.714844-15 15s6.714844 15 15 15h6.382812c29.566407 0 53.617188-24.035156 53.617188-53.578125v-96.421875c0-8.285156-6.714844-15-15-15zm-45 90c-16.539062 0-30-13.457031-30-30s13.460938-30 30-30c16.542969 0 30 13.457031 30 30s-13.457031 30-30 30zm0 0" fill="#fff9eb"/><path d="m277.5 0h-240c-20.679688 0-37.5 16.820312-37.5 37.5v437c0 20.679688 16.820312 37.5 37.5 37.5h240c20.679688 0 37.5-16.820312 37.5-37.5v-437c0-20.679688-16.820312-37.5-37.5-37.5zm22.5 474.5c0 12.40625-10.09375 22.5-22.5 22.5h-240c-12.40625 0-22.5-10.09375-22.5-22.5v-437c0-12.40625 10.09375-22.5 22.5-22.5h240c12.40625 0 22.5 10.09375 22.5 22.5zm0 0"/><path d="m106.90625 239.125h-13.171875l8.207031-21.988281c1.449219-3.882813-.519531-8.199219-4.402344-9.648438-3.878906-1.449219-8.199218.519531-9.648437 4.402344l-11.988281 32.113281c-.859375 2.300782-.535156 4.878906.867187 6.898438 1.398438 2.019531 3.703125 3.222656 6.160157 3.222656h23.976562c4.144531 0 7.5-3.355469 7.5-7.5s-3.355469-7.5-7.5-7.5zm0 0"/><path d="m45 84.996094h19.039062c0 4.144531 3.359376 7.5 7.5 7.5 4.144532 0 7.5-3.355469 7.5-7.5h.957032c4.144531 0 7.5-3.355469 7.5-7.5 0-4.140625-3.355469-7.5-7.5-7.5h-.957032v-29.996094c0-3.265625-2.113281-6.152344-5.226562-7.144531-3.113281-.992188-6.503906.144531-8.394531 2.8125l-26.539063 37.496093c-1.617187 2.285157-1.828125 5.285157-.539062 7.777344 1.289062 2.492188 3.855468 4.054688 6.660156 4.054688zm19.042969-21.421875v6.421875h-4.546875zm0 0"/><path d="m102.0625 47.5h12.441406l-8.730468 35.714844c-.980469 4.023437 1.484374 8.082031 5.507812 9.066406.597656.144531 1.195312.214844 1.785156.214844 3.375 0 6.441406-2.296875 7.277344-5.71875l11-44.996094c.546875-2.234375.035156-4.601562-1.386719-6.410156-1.421875-1.8125-3.597656-2.867188-5.898437-2.867188h-21.996094c-4.140625 0-7.5 3.355469-7.5 7.496094 0 4.144531 3.359375 7.5 7.5 7.5zm0 0"/><path d="m65.917969 392c-2.066407 0-3.75-1.683594-3.75-3.75s1.683593-3.746094 3.75-3.746094h5.25c4.140625 0 7.496093-3.359375 7.496093-7.5 0-4.144531-3.355468-7.5-7.496093-7.5h-5.25c-10.339844 0-18.746094 8.410156-18.746094 18.746094 0 10.339844 8.40625 18.75 18.746094 18.75 2.066406 0 3.75 1.683594 3.75 3.746094 0 2.070312-1.683594 3.75-3.75 3.75h-11.25c-4.140625 0-7.496094 3.359375-7.496094 7.5 0 4.144531 3.355469 7.5 7.496094 7.5h11.25c10.339843 0 18.746093-8.410156 18.746093-18.75.003907-10.335938-8.40625-18.746094-18.746093-18.746094zm0 0"/><path d="m92.378906 421.996094c0 4.144531 3.355469 7.5 7.5 7.5 4.140625 0 7.496094-3.355469 7.496094-7.5v-22.503906c0-4.144532-3.355469-7.5-7.496094-7.5-4.144531 0-7.5 3.355468-7.5 7.5zm0 0"/><path d="m107.378906 376.996094c0 4.140625-3.359375 7.496094-7.5 7.496094s-7.5-3.355469-7.5-7.496094c0-4.144532 3.359375-7.5 7.5-7.5s7.5 3.355468 7.5 7.5zm0 0"/><path d="m123.390625 369.503906c-4.140625 0-7.496094 3.355469-7.496094 7.5v44.992188c0 4.144531 3.355469 7.5 7.496094 7.5h6c4.140625 0 7.5-3.355469 7.5-7.5 0-3.628906-2.578125-6.652344-6-7.347656v-37.644532c0-4.144531-3.359375-7.5-7.5-7.5zm0 0"/><path d="m160.265625 429.496094c2.839844 0 5.4375-1.601563 6.707031-4.144532l14.996094-29.996093c1.855469-3.703125.351562-8.210938-3.351562-10.0625-3.703126-1.855469-8.210938-.351563-10.0625 3.355469l-8.292969 16.578124-8.289063-16.578124c-1.855468-3.707032-6.355468-5.207032-10.0625-3.355469-3.703125 1.855469-5.207031 6.355469-3.351562 10.0625l14.996094 29.996093c1.273437 2.539063 3.867187 4.144532 6.710937 4.144532zm0 0"/><path d="m208.707031 384.503906c-12.40625 0-22.496093 10.089844-22.496093 22.496094 0 12.402344 10.089843 22.496094 22.496093 22.496094h9.398438c4.144531 0 7.5-3.355469 7.5-7.5 0-4.140625-3.355469-7.5-7.5-7.5h-9.398438c-4.132812 0-7.5-3.359375-7.5-7.496094s3.367188-7.5 7.5-7.5c.726563 0 1.4375.105469 2.121094.308594-2.398437 2.945312-2.222656 7.285156.519531 10.027344 2.929688 2.929687 7.679688 2.929687 10.605469 0l5.042969-5.042969c2.402344-2.402344 2.890625-6.121094 1.1875-9.0625-4.015625-6.925781-11.476563-11.226563-19.476563-11.226563zm0 0"/><path d="m260.328125 384.503906c-3.464844 0-6.753906.789063-9.691406 2.195313-1.355469-1.355469-3.230469-2.195313-5.304688-2.195313-4.140625 0-7.496093 3.355469-7.496093 7.496094v29.996094c0 4.144531 3.355468 7.5 7.496093 7.5s7.5-3.355469 7.5-7.5v-14.996094c0-4.136719 3.363281-7.5 7.496094-7.5 4.144531 0 7.5-3.355469 7.5-7.5 0-4.140625-3.355469-7.496094-7.5-7.496094zm0 0"/><path d="m221.25 444.5h-127.5c-4.144531 0-7.5 3.355469-7.5 7.5s3.355469 7.5 7.5 7.5h127.5c4.144531 0 7.5-3.355469 7.5-7.5s-3.355469-7.5-7.5-7.5zm0 0"/><path d="m242.761719 47.003906h27.492187c4.140625 0 7.5-3.359375 7.5-7.5 0-4.144531-3.359375-7.5-7.5-7.5h-27.492187c-4.144531 0-7.5 3.355469-7.5 7.5 0 4.140625 3.355469 7.5 7.5 7.5zm0 0"/><path d="m262.5 182.875c-6.0625 0-11.757812 2.457031-15.90625 6.605469-9.046875-4.339844-18.980469-6.605469-29.09375-6.605469-37.21875 0-67.5 30.28125-67.5 67.5 0 1.6875.085938 3.359375.207031 5.019531l-34.210937-91.636719c-3.265625-8.753906-11.738282-14.632812-21.078125-14.632812-9.34375 0-17.8125 5.878906-21.078125 14.632812l-42 112.5c-4.339844 11.621094 1.585937 24.605469 13.207031 28.945313 2.5625.957031 5.226563 1.433594 7.882813 1.433594 3.179687 0 6.347656-.683594 9.328124-2.042969 5.46875-2.492188 9.636719-6.96875 11.738282-12.601562l2.9375-7.867188h35.964844l2.941406 7.867188c3.265625 8.753906 11.734375 14.636718 21.074218 14.636718h.003907c2.6875 0 5.335937-.480468 7.867187-1.425781 5.632813-2.101563 10.105469-6.269531 12.601563-11.738281 1.277343-2.804688 1.949219-5.777344 2.023437-8.765625 11.769532 19.839843 33.398438 33.175781 58.089844 33.175781 11.835938 0 23.507812-3.140625 33.75-9.074219 3.582031-2.078125 4.804688-6.667969 2.726562-10.25-2.078124-3.582031-6.664062-4.804687-10.25-2.730469-7.960937 4.617188-17.027343 7.054688-26.226562 7.054688-28.945312 0-52.5-23.550781-52.5-52.5s23.554688-52.5 52.5-52.5c9.6875 0 19.160156 2.675781 27.398438 7.742188 1.839843 1.128906 4.074218 1.414062 6.132812.777343 2.0625-.632812 3.75-2.121093 4.632812-4.085937 1.214844-2.695313 3.898438-4.433594 6.835938-4.433594 4.136719 0 7.5 3.363281 7.5 7.5v96.421875c0 25.40625-20.6875 46.078125-46.117188 46.078125h-6.382812c-4.136719 0-7.5-3.363281-7.5-7.5v-1.875c0-4.144531-3.359375-7.5-7.5-7.5-4.144531 0-7.5 3.355469-7.5 7.5v1.875c0 12.40625 10.09375 22.5 22.5 22.5h6.382812c33.699219 0 61.117188-27.398438 61.117188-61.078125v-96.421875c0-12.40625-10.09375-22.5-22.5-22.5zm-118.761719 104.363281c-.828125 1.824219-2.320312 3.210938-4.199219 3.914063-.847656.316406-1.730468.476562-2.621093.476562-3.113281 0-5.9375-1.960937-7.027344-4.882812l-4.757813-12.742188c-1.097656-2.933594-3.898437-4.878906-7.027343-4.878906h-46.375c-3.132813 0-5.933594 1.945312-7.027344 4.878906l-4.757813 12.742188c-.699218 1.878906-2.089843 3.371094-3.914062 4.203125-1.824219.828125-3.859375.902343-5.734375.203125-1.878906-.703125-3.367187-2.089844-4.199219-3.914063-.832031-1.824219-.90625-3.859375-.203125-5.734375l41.996094-112.5c1.089844-2.917968 3.914063-4.878906 7.027344-4.878906s5.9375 1.960938 7.027343 4.878906l42 112.5c.699219 1.875.625 3.910156-.207031 5.734375zm0 0"/><path d="m217.5 212.875c-20.675781 0-37.5 16.820312-37.5 37.5s16.824219 37.5 37.5 37.5c20.679688 0 37.5-16.820312 37.5-37.5s-16.820312-37.5-37.5-37.5zm0 60c-12.40625 0-22.5-10.09375-22.5-22.5s10.09375-22.5 22.5-22.5 22.5 10.09375 22.5 22.5-10.09375 22.5-22.5 22.5zm0 0"/></svg>