<svg id="Capa_1" enable-background="new 0 0 512 512" height="512" viewBox="0 0 512 512" width="512" xmlns="http://www.w3.org/2000/svg"><g><g><path d="m368.5 256-150.5 22.5-100.5-22.5s-50 0-50-68 50-68 50-68h251z" fill="#ab7b64"/><path d="m368.5 243.64v12.36l-144.865 15.665-106.135-15.665s-23.99 0-38.73-22.61c8.26 2.61 14.49 2.61 14.49 2.61h236.23c9.53 5.11 20.43 8 32.01 8 2.36 0 4.7-.12 7-.36z" fill="#9a6a53"/><path d="m173.5 171.5h-104.89c.79-5.58 1.99-10.56 3.49-15h101.4c4.14 0 7.5 3.36 7.5 7.5s-3.36 7.5-7.5 7.5z" fill="#ab7b64"/><path d="m222 212c0 4.14-3.36 7.5-7.5 7.5h-142.4c-1.5-4.44-2.7-9.42-3.49-15h145.89c4.14 0 7.5 3.359 7.5 7.5z" fill="#ab7b64"/><path d="m252 164c0 4.14-3.36 7.5-7.5 7.5h-30c-4.14 0-7.5-3.36-7.5-7.5s3.36-7.5 7.5-7.5h30c4.14 0 7.5 3.359 7.5 7.5z" fill="#ab7b64"/><path d="m310 212c0 4.14-3.36 7.5-7.5 7.5h-40c-4.14 0-7.5-3.36-7.5-7.5s3.36-7.5 7.5-7.5h40c4.14 0 7.5 3.359 7.5 7.5z" fill="#ab7b64"/><g><path d="m181 164c0 4.14-3.36 7.5-7.5 7.5h-104.89c.79-5.58 1.99-10.56 3.49-15h101.4c4.14 0 7.5 3.359 7.5 7.5z" fill="#9a6a53"/></g><g><path d="m252 164c0 4.14-3.36 7.5-7.5 7.5h-30c-4.14 0-7.5-3.36-7.5-7.5s3.36-7.5 7.5-7.5h30c4.14 0 7.5 3.359 7.5 7.5z" fill="#9a6a53"/></g><g><path d="m222 212c0 4.14-3.36 7.5-7.5 7.5h-142.4c-1.5-4.44-2.7-9.42-3.49-15h145.89c4.14 0 7.5 3.359 7.5 7.5z" fill="#9a6a53"/></g><g><path d="m322.5 219.5h-60c-4.14 0-7.5-3.36-7.5-7.5s3.36-7.5 7.5-7.5h50 .02z" fill="#9a6a53"/></g><circle cx="368.5" cy="188" fill="#f3d69e" r="68"/><path d="m436.5 188c0 37.56-30.44 68-68 68-18.35 0-35-7.27-47.23-19.09 10.69 7.01 23.48 11.09 37.23 11.09 37.56 0 68-30.44 68-68 0-19.21-7.96-36.56-20.77-48.91 18.53 12.15 30.77 33.099 30.77 56.91z" fill="#efcb83"/><g><path d="m334.264 211.971c-2.789 0-5.466-1.562-6.76-4.241-2.988-6.188-4.504-12.827-4.504-19.73 0-25.089 20.411-45.5 45.5-45.5 4.143 0 7.5 3.357 7.5 7.5s-3.357 7.5-7.5 7.5c-16.817 0-30.5 13.683-30.5 30.5 0 4.626 1.014 9.07 3.012 13.209 1.801 3.729.237 8.214-3.493 10.015-1.051.507-2.163.747-3.255.747z" fill="#edc472"/></g><g><path d="m368.5 233.5c-4.781 0-9.497-.743-14.018-2.21-3.94-1.277-6.099-5.508-4.82-9.447 1.278-3.942 5.511-6.103 9.447-4.82 3.024.98 6.184 1.478 9.391 1.478 16.817 0 30.5-13.683 30.5-30.5 0-4.143 3.357-7.5 7.5-7.5s7.5 3.357 7.5 7.5c0 25.087-20.411 45.499-45.5 45.499z" fill="#edc472"/></g><path d="m300.5 392h-243s-50 1.184-50-67.408 50-68.592 50-68.592h243z" fill="#ab7b64"/><path d="m300.5 372v20h-243s-22.63.53-37.44-20z" fill="#9a6a53"/><g fill="#ab7b64"><path d="m60.39 305.5h-51.41c.94-5.61 2.29-10.59 3.95-15h47.46c4.14 0 7.5 3.36 7.5 7.5s-3.36 7.5-7.5 7.5z"/><path d="m109 349c0 4.14-3.36 7.5-7.5 7.5h-89.32c-1.51-4.43-2.72-9.4-3.53-15h92.85c4.14 0 7.5 3.359 7.5 7.5z"/><path d="m244 349c0 4.14-3.36 7.5-7.5 7.5h-55c-4.14 0-7.5-3.36-7.5-7.5s3.36-7.5 7.5-7.5h55c4.14 0 7.5 3.359 7.5 7.5z"/><path d="m237.5 305.5h-110c-4.14 0-7.5-3.36-7.5-7.5s3.36-7.5 7.5-7.5h110c4.14 0 7.5 3.36 7.5 7.5s-3.36 7.5-7.5 7.5z"/><path d="m436.5 256h-140.479v136l141.607-.016z"/></g><path d="m437.63 391.979-137.13.021v-20l136.96-.021z" fill="#9a6a53"/><circle cx="436.5" cy="324" fill="#f3d69e" r="68"/><g><path d="m425.412 367.851c-.727 0-1.465-.106-2.195-.33-18.969-5.799-32.217-23.695-32.217-43.521 0-15.906 8.111-30.398 21.696-38.766 3.526-2.172 8.147-1.075 10.319 2.452 2.173 3.527 1.074 8.147-2.452 10.319-9.119 5.617-14.563 15.334-14.563 25.995 0 13.291 8.883 25.289 21.602 29.178 3.962 1.211 6.191 5.403 4.979 9.364-.987 3.23-3.958 5.309-7.169 5.309z" fill="#edc472"/></g><g><path d="m459.534 361.708c-2.258 0-4.489-1.015-5.965-2.946-2.516-3.291-1.886-7.998 1.405-10.513 7.643-5.839 12.026-14.678 12.026-24.249 0-10.132-5.035-19.586-13.47-25.288-3.431-2.319-4.332-6.982-2.012-10.414 2.32-3.43 6.982-4.333 10.414-2.012 12.566 8.495 20.068 22.593 20.068 37.714 0 14.284-6.531 27.468-17.918 36.168-1.359 1.039-2.96 1.54-4.548 1.54z" fill="#edc472"/></g><g><path d="m245 298c0 4.14-3.36 7.5-7.5 7.5h-110c-4.14 0-7.5-3.36-7.5-7.5s3.36-7.5 7.5-7.5h110c4.14 0 7.5 3.359 7.5 7.5z" fill="#9a6a53"/></g><g><path d="m67.89 298c0 4.14-3.36 7.5-7.5 7.5h-51.41c.94-5.61 2.29-10.59 3.95-15h47.46c4.14 0 7.5 3.359 7.5 7.5z" fill="#9a6a53"/></g><g><path d="m109 349c0 4.14-3.36 7.5-7.5 7.5h-89.32c-1.51-4.43-2.72-9.4-3.53-15h92.85c4.14 0 7.5 3.359 7.5 7.5z" fill="#9a6a53"/></g><g><path d="m244 349c0 4.14-3.36 7.5-7.5 7.5h-55c-4.14 0-7.5-3.36-7.5-7.5s3.36-7.5 7.5-7.5h55c4.14 0 7.5 3.359 7.5 7.5z" fill="#9a6a53"/></g><circle cx="300.5" cy="324" fill="#f3d69e" r="68"/><g><path d="m280.919 364.061c-1.32 0-2.655-.348-3.868-1.079-13.602-8.207-22.051-23.145-22.051-38.982 0-7.144 1.708-14.271 4.94-20.611 1.881-3.688 6.4-5.157 10.088-3.275 3.69 1.881 5.157 6.397 3.275 10.088-2.192 4.299-3.303 8.942-3.303 13.798 0 10.775 5.533 20.547 14.801 26.139 3.546 2.141 4.687 6.75 2.547 10.297-1.41 2.333-3.888 3.625-6.429 3.625z" fill="#edc472"/></g><g><path d="m315.28 366.51c-2.921 0-5.697-1.717-6.908-4.576-1.616-3.813.165-8.216 3.979-9.832 11.329-4.799 18.649-15.83 18.649-28.102 0-16.817-13.683-30.5-30.5-30.5-4.143 0-7.5-3.357-7.5-7.5s3.357-7.5 7.5-7.5c25.089 0 45.5 20.411 45.5 45.5 0 18.308-10.911 34.761-27.797 41.914-.955.405-1.947.596-2.923.596z" fill="#edc472"/></g><path d="m504.5 324c0 37.56-30.44 68-68 68-27.58 0-51.32-16.41-61.99-40 12.36 16.97 32.38 28 54.99 28 37.56 0 68-30.44 68-68 0-9.98-2.15-19.45-6.01-27.99 8.19 11.219 13.01 25.04 13.01 39.99z" fill="#efcb83"/><path d="m368.5 324c0 5.03-.55 9.92-1.58 14.64-6.69 30.52-33.89 53.36-66.42 53.36-27.58 0-51.32-16.41-61.99-40 12.36 16.97 32.38 28 54.99 28 37.56 0 68-30.44 68-68 0-9.98-2.15-19.45-6.01-27.99 3.02 4.12 5.57 8.6 7.59 13.35 3.49 8.18 5.42 17.18 5.42 26.64z" fill="#efcb83"/></g><g><path d="m498.391 280.748c-2.374-3.393-7.052-4.219-10.445-1.844-3.394 2.376-4.219 7.052-1.844 10.445 7.129 10.186 10.898 22.167 10.898 34.651 0 33.359-27.141 60.5-60.5 60.5s-60.5-27.141-60.5-60.5 27.141-60.5 60.5-60.5c8.887 0 17.444 1.88 25.435 5.588 3.761 1.746 8.218.111 9.96-3.646 1.744-3.758.111-8.217-3.646-9.96-9.984-4.634-20.666-6.982-31.749-6.982h-22.882c18.43-13.78 30.382-35.771 30.382-60.5 0-41.631-33.869-75.5-75.5-75.5h-107.5c-4.143 0-7.5 3.357-7.5 7.5s3.357 7.5 7.5 7.5h62.382c-18.43 13.779-30.382 35.77-30.382 60.5 0 5.668.648 11.185 1.838 16.5h-32.338c-4.143 0-7.5 3.357-7.5 7.5s3.357 7.5 7.5 7.5h37.412c5.31 11.515 13.417 21.484 23.47 29h-22.882-87.5c-4.143 0-7.5 3.357-7.5 7.5s3.357 7.5 7.5 7.5h42.382c-9.467 7.078-17.211 16.331-22.517 27h-105.365c-4.143 0-7.5 3.357-7.5 7.5s3.357 7.5 7.5 7.5h99.801c-1.498 5.922-2.301 12.118-2.301 18.5 0 6.025.73 11.879 2.07 17.5h-45.57c-4.143 0-7.5 3.357-7.5 7.5s3.357 7.5 7.5 7.5h50.865c5.313 11.095 13.254 20.7 23.018 28h-108.359c-4.143 0-7.5 3.357-7.5 7.5s3.357 7.5 7.5 7.5h289.476c41.631 0 75.5-33.869 75.5-75.5 0-15.577-4.706-30.534-13.609-43.252zm-190.391-92.748c0-33.359 27.141-60.5 60.5-60.5s60.5 27.14 60.5 60.5-27.141 60.5-60.5 60.5-60.5-27.141-60.5-60.5zm83.382 75.5c-9.679 7.237-17.57 16.739-22.882 27.712-5.313-10.973-13.203-20.475-22.882-27.712zm-151.382 60.5c0-33.359 27.141-60.5 60.5-60.5s60.5 27.14 60.5 60.5-27.141 60.5-60.5 60.5-60.5-27.141-60.5-60.5zm105.618 60.5c9.679-7.237 17.57-16.739 22.882-27.712 5.313 10.973 13.203 20.475 22.882 27.712z"/><path d="m420.563 298.005c3.526-2.172 4.625-6.792 2.452-10.319-2.172-3.527-6.793-4.624-10.319-2.452-13.585 8.367-21.696 22.859-21.696 38.766 0 19.826 13.248 37.723 32.217 43.521 3.853 1.212 8.165-.983 9.364-4.979 1.212-3.961-1.018-8.153-4.979-9.364-12.719-3.889-21.602-15.887-21.602-29.178 0-10.661 5.444-20.378 14.563-25.995z"/><path d="m454.975 348.25c-3.291 2.515-3.921 7.222-1.405 10.513 2.527 3.309 7.25 3.906 10.513 1.405 11.386-8.701 17.917-21.884 17.917-36.168 0-15.12-7.502-29.219-20.067-37.714-3.432-2.321-8.094-1.418-10.414 2.012-2.32 3.432-1.419 8.095 2.012 10.414 8.434 5.702 13.469 15.156 13.469 25.288 0 9.571-4.383 18.41-12.025 24.25z"/><path d="m111.75 384.5h-54.25c-.027 0-.104.001-.132.001-.154-.021-14.957.024-26.72-11.608-4.432-4.383-7.923-9.865-10.478-16.393h81.33c4.143 0 7.5-3.357 7.5-7.5s-3.357-7.5-7.5-7.5h-85.259c-1.77-10.702-1.622-25.752.386-36h55.873c4.143 0 7.5-3.357 7.5-7.5s-3.357-7.5-7.5-7.5h-51.403c11.445-26.281 35.123-26.984 36.403-27h120.5c4.143 0 7.5-3.357 7.5-7.5s-3.357-7.5-7.5-7.5c-1.498-.374-62.972.732-64.235-.403-8.495-1.397-25.196-6.93-33.63-28.597h134.365c4.143 0 7.5-3.357 7.5-7.5s-3.357-7.5-7.5-7.5h-138.3c-1.588-9.549-1.588-23.454.013-33h97.287c4.143 0 7.5-3.357 7.5-7.5s-3.357-7.5-7.5-7.5h-93.344c11.029-28.255 36.028-28.983 37.344-29h108.5c4.143 0 7.5-3.357 7.5-7.5s-3.357-7.5-7.5-7.5h-108.5c-.604 0-14.973.111-29.218 9.798-12.902 8.773-28.282 27.294-28.282 65.702 0 31.485 10.244 49.823 21.873 60.5h-24.373c-.605 0-14.989.112-29.242 9.889-12.892 8.842-28.258 27.505-28.258 66.202 0 26.103 6.847 46.023 20.35 59.211 15.493 15.131 34.3 15.698 37.021 15.698.068 0 .127 0 .175-.001h54.204c4.143 0 7.5-3.357 7.5-7.5s-3.357-7.499-7.5-7.499z"/><path d="m277.051 362.982c3.489 2.12 8.143 1.03 10.297-2.547 2.14-3.547.999-8.156-2.547-10.297-9.268-5.592-14.801-15.363-14.801-26.138 0-4.855 1.111-9.498 3.304-13.799 1.882-3.69.415-8.207-3.275-10.088-3.688-1.882-8.207-.413-10.088 3.275-3.233 6.341-4.941 13.468-4.941 20.612 0 15.837 8.449 30.775 22.051 38.982z"/><path d="m300.5 293.5c16.817 0 30.5 13.683 30.5 30.5 0 12.272-7.32 23.304-18.648 28.103-3.814 1.616-5.596 6.019-3.979 9.832 1.616 3.853 6.111 5.584 9.831 3.979 16.885-7.154 27.796-23.607 27.796-41.914 0-25.089-20.411-45.5-45.5-45.5-4.143 0-7.5 3.357-7.5 7.5s3.357 7.5 7.5 7.5z"/><path d="m368.5 157.5c4.143 0 7.5-3.357 7.5-7.5s-3.357-7.5-7.5-7.5c-25.089 0-45.5 20.411-45.5 45.5 0 6.903 1.516 13.542 4.504 19.73 1.807 3.768 6.367 5.279 10.015 3.493 3.73-1.801 5.294-6.285 3.493-10.015-1.998-4.138-3.012-8.583-3.012-13.208 0-16.818 13.683-30.5 30.5-30.5z"/><path d="m406.5 180.5c-4.143 0-7.5 3.357-7.5 7.5 0 16.817-13.683 30.5-30.5 30.5-3.207 0-6.366-.497-9.391-1.478-3.937-1.282-8.169.878-9.447 4.82-1.278 3.939.88 8.17 4.82 9.447 4.521 1.467 9.236 2.21 14.018 2.21 25.089 0 45.5-20.411 45.5-45.5 0-4.142-3.357-7.499-7.5-7.499z"/><path d="m207 164c0 4.143 3.357 7.5 7.5 7.5h30c4.143 0 7.5-3.357 7.5-7.5s-3.357-7.5-7.5-7.5h-30c-4.143 0-7.5 3.357-7.5 7.5z"/></g></g></svg>